<?xml version="1.0" encoding="UTF-8"?>
<svg id="Layer_2" data-name="Layer 2" xmlns="http://www.w3.org/2000/svg" viewBox="0 0 139.31 120.56">
  <defs>
    <style>
      .cls-1 {
        fill: #fff;
      }
    </style>
  </defs>
  <g id="Logo">
    <g id="Second_But_Better" data-name="Second But Better">
      <g>
        <rect class="cls-1" x="6.77" y="78.14" width="11.73" height="10.22" rx="3.21" ry="3.21"/>
        <rect class="cls-1" x="123.32" y="21.99" width="15.99" height="10.22" rx="3.21" ry="3.21"/>
        <path class="cls-1" d="m135.94,74.9h-15.19c-1.05,0-1.89-.85-1.89-1.89v-6.29c0-1.16.94-2.1,2.1-2.1h3.3c1.77,0,3.21-1.44,3.21-3.21v-3.8c0-1.77-1.44-3.21-3.21-3.21h-3.36c-1.13,0-2.04-.91-2.04-2.04v-5.88c0-1.11.9-2.02,2.02-2.02h3.23c1.77,0,3.21-1.44,3.21-3.21v-4.15c0-1.77-1.44-3.21-3.21-3.21h-2.89c-1.3,0-2.35-1.05-2.35-2.35v-6.98c0-.69.56-1.25,1.25-1.25h0c1.77,0,3.21-1.44,3.21-3.21v-3.8c0-1.77-1.44-3.21-3.21-3.21h-1.03c-.67,0-1.29-.4-1.54-1.02C114.65,4.74,107.36-.38,98.94.02c-10.21.49-18.07,9.24-18.07,19.46v24.06s0,.03,0,.05c-.03.01-.06.02-.1.03,0-.01-.02-.03-.03-.04l-6.16-10.05c-.35-.57.06-1.31.74-1.31h0c1.07-.3,1.85-1.44,1.85-3.21v-1.7c0-1.04-.5-1.95-1.26-2.54-.54-.42-1.21-.67-1.95-.67h-6.05c-1.77,0-3.21,1.44-3.21,3.21v1.7c0,.63.19,1.22.5,1.71.57.9,1.41,1.39,2.1,1.5.78.12,1.14.35,1.5.93l7.91,12.91c1.17,1.91,2.81,2.31,3.98,2.31,1.9,0,4.91-1.31,4.91-4.82v-24.17c0-7.41,6.02-14.19,13.42-14.62,5.23-.3,9.89,2.23,12.6,6.19.62.9-.05,2.13-1.14,2.13h-1.86c-.89,0-1.46-.24-1.88-.68-.75-.78-1.63-1.43-2.6-1.92-.39-.19-.79-.36-1.2-.51-.37-.13-.75-.24-1.15-.32-.62-.13-1.26-.19-1.92-.19h0c-.99,0-1.94.15-2.83.43-.6.19-1.17.43-1.71.72-.81.44-1.55.99-2.2,1.64-.43.43-.82.9-1.16,1.41-.17.25-.33.52-.48.79-.29.54-.54,1.11-.72,1.71-.28.9-.43,1.85-.43,2.83v24.54c0,5.92-4.79,9.55-9.64,9.55-1.14,0-2.28-.2-3.36-.61-.72-.28-1.42-.65-2.07-1.12-.08-.06-.2-.16-.33-.27-.67-.58-1.52-.91-2.41-.91h-5.34c-1.77,0-3.21-1.44-3.21-3.21v-3.8c0-.44.09-.87.25-1.25,1.03-2.43,1.09-5.15-.24-7.42h0c-1.37-2.34-3.89-3.78-6.6-3.78h-1.88c-1.77,0-3.21-1.44-3.21-3.21v-3.8c0-1.42.93-2.61,2.21-3.03h18.65c.35,0,.69-.07,1-.18,1.28-.42,2.21-1.61,2.21-3.03v-4.15c0-1.77-1.44-3.21-3.21-3.21h-11.72c-.75,0-1.44-.39-1.83-1.02h0C56.14,3.44,50.01,0,43.4,0h-5.1c-9.15,0-16.8,6.5-18.6,15.12h-3.86c-1.77,0-3.21,1.44-3.21,3.21v4.15c0,1.77,1.44,3.21,3.21,3.21h3.46v4.94h-8.22c-1.77,0-3.21,1.44-3.21,3.21v3.8c0,1.77,1.44,3.21,3.21,3.21h8.22v8.43h-11.17c-1.77,0-3.21,1.44-3.21,3.21v3.8c0,1.77,1.44,3.21,3.21,3.21h11.17v4.42H3.21c-1.77,0-3.21,1.44-3.21,3.21v4.15c0,1.77,1.44,3.21,3.21,3.21h16.09v21.15h-2.27c-1.77,0-3.21,1.44-3.21,3.21v4.15c0,1.77,1.44,3.21,3.21,3.21h2.87c2.12,8.37,9.78,14.55,18.84,14.34,10.39-.24,18.55-9.03,18.55-19.42v-22.77s0-.03,0-.05c.03-.01.06-.02.1-.03,0,.01.02.03.03.04l12.13,19.62h-1.47c-1.77,0-3.21,1.44-3.21,3.21v4.15c0,1.77,1.44,3.21,3.21,3.21h8.01l1.87,3.02c3.46,5.6,9.58,9.01,16.16,9.01h5.74c10.49,0,19-8.51,19-19v-.48c0-.95.77-1.72,1.72-1.72h8.63c1.77,0,3.21-1.44,3.21-3.21v-3.8c0-1.77-1.44-3.21-3.21-3.21h-8.4c-1.08,0-1.95-.88-1.95-1.95h0c0-.95.77-1.72,1.72-1.72h15.37c1.77,0,3.21-1.44,3.21-3.21v-4.15c0-1.77-1.44-3.21-3.21-3.21Zm-24.33-20.5h0c-1.23,0-2.22-.99-2.22-2.22v-5.46c0-1.24,1.01-2.25,2.25-2.25h0c1.37,0,2.48,1.11,2.48,2.48v4.95c0,1.39-1.12,2.51-2.51,2.51Zm-10.89-27.88c0-1.77,1.44-3.21,3.21-3.21h6.9c1.82,0,3.29,1.47,3.29,3.29v3.85c0,1.9-1.54,3.43-3.43,3.43h-6.76c-1.77,0-3.21-1.44-3.21-3.21v-4.15Zm-8.37,41.37c0-1.77,1.44-3.21,3.21-3.21l13.83-.06h1.65c1.7,0,3.08,1.38,3.08,3.08v3.67c0,1.95-1.58,3.52-3.52,3.52h-15.04c-1.77,0-3.21-1.44-3.21-3.21v-3.8ZM38.3,4.73h5.1c3.37,0,6.61,1.22,9.15,3.34.83.69.37,2.02-.71,2.02h-3.61c-.85,0-1.69-.12-2.51-.33-.75-.19-1.53-.3-2.33-.3h-5.1c-.99,0-1.94.15-2.83.43-.6.19-1.17.43-1.71.72-.54.29-1.05.64-1.52,1.03-.36.3-.69.63-1,.97-.18.2-.36.42-.53.64-.13.17-.34.51-.55.86-.37.63-1.05,1.01-1.78,1.01h-2.85c-.49,0-.81-.49-.64-.94,1.98-5.5,7.24-9.44,13.41-9.44Zm-14.27,55.81c0-.58.03-1.08.6-1.15,1.16-.14,1.54-1.75,1.54-3.11v-3.8c0-1.77-1.09-3.16-2.14-3.21h0v-21.77c0-1.01.82-1.82,1.82-1.82h10.13c1.28.42,2.21,1.61,2.21,3.03v3.8c0,1.77-1.44,3.21-3.21,3.21,0,0-1.6,0-3.17,0-1.68,0-3.04,1.36-3.04,3.04v12.1c0,1.29,1.05,2.34,2.34,2.34,3.39,0,9.27,0,9.27,0,1.77,0,3.21,1.44,3.21,3.21v4.15c0,1.77-1.44,3.21-3.21,3.21l-11.61.14h-3.07c-.92,0-1.66-.74-1.66-1.66v-1.72Zm2.01,13.95h.97c.97,0,1.76.79,1.76,1.76v7.46c0,1.1.89,1.99,1.99,1.99,1.42,0,3.06,0,3.06,0,1.77,0,3.21,1.44,3.21,3.21v3.8c0,1.31-.78,2.43-1.9,2.93h-8.79c-1.28,0-2.31-1.03-2.31-2.31v-16.83c0-1.11.9-2.01,2.01-2.01Zm55.44,5.72c0,1.77-1.44,3.21-3.21,3.21h-4.27c-1.01,0-1.62,1.1-1.09,1.96l7.77,12.57h-5.56l-13.67-22.11c-1.17-1.89-2.81-2.29-3.98-2.29-1.28,0-2.53.48-3.45,1.32-.97.88-1.46,2.06-1.46,3.5v22.82c0,7.5-5.63,14-13.1,14.59-5.7.46-10.77-2.47-13.43-6.98-.68-1.14.21-2.59,1.53-2.59h0c1.4,0,2.7.65,3.64,1.7,1.74,1.95,4.28,3.18,7.1,3.18.66,0,1.3-.07,1.92-.19.62-.13,1.22-.31,1.79-.56.57-.24,1.11-.54,1.62-.88,2.54-1.71,4.2-4.61,4.2-7.9v-23.2c0-5.92,4.79-9.55,9.64-9.55,2.39,0,4.78.89,6.63,2.81.73.75,1.7,1.22,2.75,1.22h11.42c1.77,0,3.21,1.44,3.21,3.21v4.15Zm32.65,8.93s-.8.02-.99.06c-1.49.28-2.62,1.58-2.62,3.15v3.8c0,1.77,1.44,3.21,3.21,3.21h0c.22,0,.4.18.4.4v1.8c0,7.88-6.39,14.27-14.27,14.27h-5.74c-1.56,0-3.07-.25-4.49-.72-.28-.09-.57-.2-.84-.31-2.77-1.11-5.16-3.09-6.8-5.74l-.33-.53h4.74c.74,0,1.46.24,2.05.69,1.62,1.2,3.6,1.88,5.68,1.88h5.74c.66,0,1.3-.07,1.92-.19,4.34-.89,7.61-4.73,7.61-9.34v-2.75c0-1.55-1.26-2.8-2.8-2.8h-6.85c-1.77,0-3.21-1.44-3.21-3.21v-4.15c0-1.77,1.44-3.21,3.21-3.21h4.49c.13.02.26.04.39.04h7.98c.84,0,1.53.68,1.53,1.53v2.14Z"/>
      </g>
    </g>
  </g>
</svg>